HIERARCHY
ROOT Hips
{
  OFFSET 40.8559 100.179 6.11643
  CHANNELS 6 Xposition Yposition Zposition Zrotation Xrotation Yrotation
  JOINT spine
  {
    OFFSET 0 8.81704 0.507024
    CHANNELS 3 Zrotation Xrotation Yrotation
    JOINT spine1
    {
      OFFSET 0 10.7766 0
      CHANNELS 3 Zrotation Xrotation Yrotation
      JOINT spine2
      {
        OFFSET 0 10.3259 0
        CHANNELS 3 Zrotation Xrotation Yrotation
        JOINT Neck
        {
          OFFSET 0 26.511 1.26395
          CHANNELS 3 Zrotation Xrotation Yrotation
          JOINT Head
          {
            OFFSET 0 8.00966 0
            CHANNELS 3 Zrotation Xrotation Yrotation
            End Site
            {
              OFFSET 0 19.3879 -6.39386
            }
          }
        }
        JOINT RightShoulder
        {
          OFFSET -4.34795 11.1512 -0.605422
          CHANNELS 3 Zrotation Xrotation Yrotation
          JOINT RightArm
          {
            OFFSET 0 14.6258 0
            CHANNELS 3 Zrotation Xrotation Yrotation
            JOINT RightArmRoll
            {
              OFFSET 0 7.3834 0
              CHANNELS 3 Zrotation Xrotation Yrotation
              JOINT RightForeArm
              {
                OFFSET 0 21.5052 0
                CHANNELS 3 Zrotation Xrotation Yrotation
                JOINT RightForeArmRoll
                {
                  OFFSET 0 8.28532 0
                  CHANNELS 3 Zrotation Xrotation Yrotation
                  JOINT RightHand
                  {
                    OFFSET 0 16.6268 0
                    CHANNELS 3 Zrotation Xrotation Yrotation
                    End Site
                    {
                      OFFSET 0 0 0
                    }
                  }
                }
              }
            }
          }
        }
        JOINT LeftShoulder
        {
          OFFSET 4.34795 11.1512 -0.605422
          CHANNELS 3 Zrotation Xrotation Yrotation
          JOINT LeftArm
          {
            OFFSET 0 14.6258 0
            CHANNELS 3 Zrotation Xrotation Yrotation
            JOINT LeftArmRoll
            {
              OFFSET 0 7.3834 0
              CHANNELS 3 Zrotation Xrotation Yrotation
              JOINT LeftForeArm
              {
                OFFSET 0 21.5052 0
                CHANNELS 3 Zrotation Xrotation Yrotation
                JOINT LeftForeArmRoll
                {
                  OFFSET 0 8.28532 0
                  CHANNELS 3 Zrotation Xrotation Yrotation
                  JOINT LeftHand
                  {
                    OFFSET 0 16.6268 0
                    CHANNELS 3 Zrotation Xrotation Yrotation
                    End Site
                    {
                      OFFSET 0 0 0
                    }
                  }
                }
              }
            }
          }
        }
      }
    }
  }
  JOINT RightUpLeg
  {
    OFFSET -7.8151 -1.43309 -1.20217
    CHANNELS 3 Zrotation Xrotation Yrotation
    JOINT RightUpLegRoll
    {
      OFFSET 0 19.4959 0
      CHANNELS 3 Zrotation Xrotation Yrotation
      JOINT RightLeg
      {
        OFFSET 0 -24.1427 0
        CHANNELS 3 Zrotation Xrotation Yrotation
        JOINT RightLegRoll
        {
          OFFSET 0 24.2217 0
          CHANNELS 3 Zrotation Xrotation Yrotation
          JOINT RightFoot
          {
            OFFSET 0 20.1605 0
            CHANNELS 3 Zrotation Xrotation Yrotation
            JOINT RightToeBase
            {
              OFFSET 0 16.8532 0
              CHANNELS 3 Zrotation Xrotation Yrotation
              End Site
              {
                OFFSET 0.00714343 8.16187 -0.94078
              }
            }
          }
        }
      }
    }
  }
  JOINT LeftUpLeg
  {
    OFFSET 7.8151 -1.43309 -1.20217
    CHANNELS 3 Zrotation Xrotation Yrotation
    JOINT LeftUpLegRoll
    {
      OFFSET 0 19.496 0
      CHANNELS 3 Zrotation Xrotation Yrotation
      JOINT LeftLeg
      {
        OFFSET 0 24.1426 0
        CHANNELS 3 Zrotation Xrotation Yrotation
        JOINT LeftLegRoll
        {
          OFFSET 0 24.4456 0
          CHANNELS 3 Zrotation Xrotation Yrotation
          JOINT LeftFoot
          {
            OFFSET 0 19.9366 0
            CHANNELS 3 Zrotation Xrotation Yrotation
            JOINT LeftToeBase
            {
              OFFSET 0 16.8532 0
              CHANNELS 3 Zrotation Xrotation Yrotation
              End Site
              {
                OFFSET -0.0320138 8.16187 -0.94078
              }
            }
          }
        }
      }
    }
  }
}
MOTION
Frames: 6
Frame Time: 0.00208333
47.8418 99.8444 12.7229 0.0176695 3.57506 -0.212277 0.355059 -1.62051 0.11336 0.711621 0.762248 0.176028 0.709911 2.40724 0.164187 -8.65285 18.6654 4.78311 1.45864 -0.369421 2.45875 64.1572 -0.715471 -1.09428 110.764 17.8561 -7.78022 2.65735e-005 -2.97625e-007 2.00506e-006 24.0813 18.798 -3.60987 -8.50342e-006 -6.46413e-006 -2.99999 8.02976 -4.95146 0.697749 -64.9451 -6.7356 4.45057 -107.776 13.1865 -1.58956 2.30246e-005 5.11893e-007 1.61399e-006 -13.9473 11.6566 1.8116 2.60947e-006 -5.97027e-006 3 -8.02885 -4.95142 -0.697696 177.288 10.6684 -0.301883 -180 7.01585e-015 179.105 178.125 12.5125 179.525 -6.48616e-006 -7.35717e-006 0.094659 -17.9382 68.7996 20.1862 8.12925 25.2328 -3.48503 -175.978 11.8243 0.332222 4.54188e-006 -4.6773e-006 -1.00362 -3.76978 -17.6509 -0.0186308 1.02248e-006 -1.9416e-007 -0.284041 21.252 70.8783 -22.2998 -8.16349 25.8973 2.60574 
47.8437 99.8919 12.6829 -0.0184314 3.73053 -0.21687 0.363303 -1.62631 0.111456 0.728079 0.750643 0.172485 0.726419 2.39563 0.160367 -8.69357 18.4373 4.75459 1.47918 -0.388761 2.43926 64.1262 -0.698284 -1.08132 110.799 17.9002 -7.92429 2.65735e-005 -2.97625e-007 2.00506e-006 24.1548 18.7937 -3.60912 -8.50342e-006 -6.46413e-006 -2.99999 8.02976 -4.95146 0.697749 -64.9384 -6.76253 4.465 -107.867 13.2837 -1.66547 2.30246e-005 5.11893e-007 1.61399e-006 -13.8404 11.603 1.80226 2.60947e-006 -5.97027e-006 3 -8.02885 -4.95142 -0.697696 177.326 10.9862 -0.340547 -180 7.01586e-015 179.108 178.135 12.7282 179.52 -6.48616e-006 -7.35717e-006 0.100836 -18.0263 68.8545 20.2351 8.1292 25.2321 -3.48603 -175.9 12.148 0.234968 4.54188e-006 -4.6773e-006 -1.0012 -3.82438 -17.8656 -0.030168 1.02248e-006 -1.9416e-007 -0.287514 21.2657 70.8939 -22.315 -8.16503 25.9186 2.60409 
47.851 99.8373 12.5813 -0.0544649 3.88657 -0.220634 0.371571 -1.63264 0.109337 0.744579 0.73797 0.168553 0.742972 2.38296 0.156157 -8.73669 18.2142 4.72743 1.50082 -0.409688 2.42003 64.0955 -0.680197 -1.06791 110.833 17.9414 -8.07541 2.65735e-005 -2.97625e-007 2.00506e-006 24.2327 18.7953 -3.60986 -8.50342e-006 -6.46413e-006 -2.99999 8.02976 -4.95146 0.697749 -64.9321 -6.78986 4.47967 -107.956 13.3797 -1.74223 2.30246e-005 5.11893e-007 1.61399e-006 -13.7337 11.5491 1.79288 2.60947e-006 -5.97027e-006 3 -8.02885 -4.95142 -0.697696 177.366 11.302 -0.381192 -180 7.01586e-015 179.11 178.146 12.9367 179.515 -6.48616e-006 -7.35717e-006 0.106821 -18.1125 68.9061 20.2813 8.12912 25.231 -3.48753 -175.821 12.47 0.138346 4.54188e-006 -4.6773e-006 -0.998847 -3.87873 -18.0748 -0.0411754 1.02248e-006 -1.9416e-007 -0.290932 21.2761 70.9065 -22.3269 -8.1665 25.9385 2.60155 
47.8576 99.8577 12.5466 -0.0904496 4.043 -0.223818 0.379853 -1.63935 0.107068 0.761106 0.724551 0.164348 0.759556 2.36953 0.151673 -8.78155 17.9947 4.70125 1.52322 -0.431727 2.40097 64.0651 -0.66148 -1.05418 110.868 17.9807 -8.23149 2.65735e-005 -2.97625e-007 2.00506e-006 24.3137 18.801 -3.61164 -8.50342e-006 -6.46413e-006 -2.99999 8.02976 -4.95146 0.697749 -64.9263 -6.81746 4.49449 -108.045 13.4746 -1.8196 2.30246e-005 5.11893e-007 1.61399e-006 -13.6272 11.495 1.78346 2.60947e-006 -5.97027e-006 3 -8.02885 -4.95142 -0.697696 177.408 11.6163 -0.423259 -180 7.01587e-015 179.112 178.158 13.1402 179.51 -6.48616e-006 -7.35717e-006 0.112671 -18.1974 68.9554 20.3258 8.12902 25.2296 -3.48938 -175.741 12.7909 0.0420913 4.54188e-006 -4.6773e-006 -0.996547 -3.93293 -18.2799 -0.0518183 1.02248e-006 -1.9416e-007 -0.294309 21.2843 70.9171 -22.3365 -8.16792 25.9574 2.59837 
47.8733 99.7993 12.3171 -0.126402 4.19967 -0.226673 0.388145 -1.64627 0.104712 0.777647 0.710704 0.159987 0.776156 2.35568 0.147033 -8.82747 17.7771 4.67569 1.54604 -0.454401 2.38202 64.0349 -0.642403 -1.04027 110.903 18.0187 -8.39043 2.65735e-005 -2.97625e-007 2.00506e-006 24.3964 18.8091 -3.61402 -8.50342e-006 -6.46413e-006 -2.99999 8.02976 -4.95146 0.697749 -64.9206 -6.84521 4.50941 -108.133 13.5691 -1.89736 2.30246e-005 5.11893e-007 1.61399e-006 -13.5209 11.4408 1.77403 2.60947e-006 -5.97027e-006 3 -8.02885 -4.95142 -0.697696 177.449 11.9297 -0.46619 -180 7.01587e-015 179.114 178.171 13.3407 179.504 -6.48616e-006 -7.35717e-006 0.118444 -18.2818 69.0034 20.3693 8.12891 25.2281 -3.49142 -175.66 13.1112 -0.0540615 4.54188e-006 -4.6773e-006 -0.994275 -3.98706 -18.4828 -0.0622629 1.02248e-006 -1.9416e-007 -0.297665 21.2912 70.9265 -22.3447 -8.16931 25.9758 2.59483 
47.8749 99.7884 12.2929 -0.162335 4.35639 -0.229448 0.396438 -1.65324 0.102335 0.794191 0.69675 0.155588 0.792758 2.34173 0.142354 -8.87381 17.5601 4.65037 1.56896 -0.477234 2.36309 64.0046 -0.623236 -1.02631 110.937 18.0563 -8.55013 2.65735e-005 -2.97625e-007 2.00506e-006 24.4796 18.8178 -3.61654 -8.50342e-006 -6.46413e-006 -2.99999 8.02976 -4.95146 0.697749 -64.915 -6.873 4.52435 -108.22 13.6633 -1.97526 2.30246e-005 5.11893e-007 1.61399e-006 -13.4146 11.3866 1.7646 2.60947e-006 -5.97027e-006 3 -8.02885 -4.95142 -0.697696 177.492 12.2428 -0.509424 -180 7.01587e-015 179.116 178.183 13.5406 179.498 -6.48616e-006 -7.35717e-006 0.124198 -18.3661 69.051 20.4127 8.1288 25.2266 -3.49351 -175.578 13.4312 -0.15038 4.54188e-006 -4.6773e-006 -0.992011 -4.04123 -18.6852 -0.072677 1.02248e-006 -1.9416e-007 -0.301014 21.2978 70.9356 -22.3526 -8.17069 25.9941 2.5912 
